<!-- Generator: Adobe Illustrator 22.1.0, SVG Export Plug-In  -->
<svg version="1.1"
	 xmlns="http://www.w3.org/2000/svg" xmlns:xlink="http://www.w3.org/1999/xlink" xmlns:a="http://ns.adobe.com/AdobeSVGViewerExtensions/3.0/"
	 x="0px" y="0px" width="512px" height="512px" viewBox="0 0 512 512" style="enable-background:new 0 0 512 512;"
	 xml:space="preserve">
<style type="text/css">
	.st0{fill:#FFFFFF;}
	.st1{fill:#F7AA1B;}
</style>
<defs>
</defs>
<circle class="st0" cx="256" cy="256" r="256"/>
<g>
	<g>
		<path class="st1" d="M345.9,97.4H80.5c-12.3,0-22.3,10-22.3,22.3v159.2c0,12.3,10,22.3,22.3,22.3h17.2v59.3c0,3.8,2.3,7.2,5.8,8.6
			c1.2,0.5,2.4,0.7,3.6,0.7c2.4,0,4.8-0.9,6.6-2.7l65.9-65.9h13.2c5.2,0,9.3-4.2,9.3-9.3c0-5.2-4.2-9.3-9.3-9.3c0,0-17.5,0-17.7,0
			c-2.2,0.1-4.3,1-6,2.7l-52.7,52.7c0,0,0-46.7,0-46.9c-0.4-4.8-4.4-8.5-9.3-8.5H80.5c-2,0-3.6-1.6-3.6-3.6V119.7
			c0-2,1.6-3.6,3.6-3.6h265.4c2,0,3.6,1.6,3.6,3.6v61.1c0,5.2,4.2,9.3,9.3,9.3s9.3-4.2,9.3-9.3v-61.1
			C368.1,107.4,358.1,97.4,345.9,97.4z"/>
	</g>
</g>
<g>
	<g>
		<path class="st1" d="M431.5,211.6H245.8c-12.3,0-22.3,10-22.3,22.3v108.6c0,12.3,10,22.3,22.3,22.3h116.3l47.1,47.1
			c1.8,1.8,4.2,2.7,6.6,2.7c1.2,0,2.4-0.2,3.6-0.7c3.5-1.4,5.8-4.8,5.8-8.6v-40.5h6.4c12.3,0,22.3-10,22.3-22.3V233.8
			C453.8,221.6,443.8,211.6,431.5,211.6z M435.2,342.5c0,2-1.6,3.6-3.6,3.6h-15.7c-4.9,0-8.9,3.8-9.3,8.6c0,0.2,0,28,0,28
			l-33.9-33.9c0,0-0.1-0.1-0.1-0.1c-0.1-0.1-0.3-0.2-0.4-0.3c-1.6-1.4-3.8-2.3-6.1-2.3H245.8c-2,0-3.6-1.6-3.6-3.6V233.8
			c0-2,1.6-3.6,3.6-3.6h185.8c2,0,3.6,1.6,3.6,3.6V342.5z"/>
	</g>
</g>
<g>
	<g>
		<path class="st1" d="M338.7,278.8c-5.2,0-9.3,4.2-9.3,9.3s4.2,9.3,9.3,9.3c5.2,0,9.3-4.2,9.3-9.3S343.8,278.8,338.7,278.8z"/>
	</g>
</g>
<g>
	<g>
		<path class="st1" d="M298.1,159.1H128.2c-5.2,0-9.3,4.2-9.3,9.3c0,5.2,4.2,9.3,9.3,9.3h169.9c5.2,0,9.3-4.2,9.3-9.3
			C307.4,163.3,303.2,159.1,298.1,159.1z"/>
	</g>
</g>
<g>
	<g>
		<path class="st1" d="M192.7,220.8h-64.5c-5.2,0-9.3,4.2-9.3,9.3c0,5.2,4.2,9.3,9.3,9.3h64.5c5.2,0,9.3-4.2,9.3-9.3
			C202,225,197.8,220.8,192.7,220.8z"/>
	</g>
</g>
<g>
	<g>
		<path class="st1" d="M295.3,278.8c-5.2,0-9.3,4.2-9.3,9.3s4.2,9.3,9.3,9.3c5.2,0,9.3-4.2,9.3-9.3S300.4,278.8,295.3,278.8z"/>
	</g>
</g>
<g>
	<g>
		<path class="st1" d="M382,278.8c-5.2,0-9.3,4.2-9.3,9.3s4.2,9.3,9.3,9.3c5.2,0,9.3-4.2,9.3-9.3S387.2,278.8,382,278.8z"/>
	</g>
</g>
</svg>
